<svg xmlns="http://www.w3.org/2000/svg" width="32" height="32" viewBox="0 0 32 32"><g fill="#98CB02"><path d="M19.832 4.36l1.204-1.937a.28.28 0 0 0-.474-.292L19.32 4.126a8.613 8.613 0 0 0-3.322-.66 8.58 8.58 0 0 0-3.323.662l-1.242-1.995a.28.28 0 0 0-.383-.092.28.28 0 0 0-.09.384l1.206 1.938C9.97 5.47 8.48 7.5 8.41 9.836h15.176c-.07-2.336-1.558-4.366-3.754-5.475zm-7.06 3.367a.886.886 0 1 1 0 0zm6.453 0a.886.886 0 1 1 0-1.772.886.886 0 1 1 0 1.772zM5.685 11.054v.005c-.837 0-1.518.676-1.518 1.516v6.957c0 .84.68 1.516 1.518 1.516.84 0 1.52-.68 1.52-1.52v-6.956c-.002-.84-.68-1.52-1.52-1.52zM26.313 11.054v.005c-.84 0-1.52.676-1.52 1.516v6.957a1.52 1.52 0 0 0 3.038-.003v-6.957c.002-.84-.68-1.52-1.517-1.52zM8.406 22.955h.002c0 .812.64 1.477 1.44 1.515h1.506v3.99a1.52 1.52 0 0 0 3.037 0v-3.99h3.21v4.008c0 .84.684 1.52 1.522 1.52.837 0 1.516-.68 1.516-1.518v-4.008h1.438c.837 0 1.516-.676 1.516-1.515V11.06H8.406v11.895z"/></g></svg>