<svg xmlns="http://www.w3.org/2000/svg" xmlns:xlink="http://www.w3.org/1999/xlink" width="32" height="32" viewBox="0 0 32 32"><use xlink:href="#a" width="32" height="32" x="-16" y="-16" transform="matrix(1 0 0 -1 16 16)" overflow="visible"/><path fill="#999" d="M32 28a4 4 0 0 1-4 4H4a4 4 0 0 1-4-4V4a4 4 0 0 1 4-4h24a4 4 0 0 1 4 4v24z"/><g><path fill="#FB913F" d="M32 28a4 4 0 0 1-4 4H4a4 4 0 0 1-4-4V4a4 4 0 0 1 4-4h24a4 4 0 0 1 4 4v24z"/><path fill="#FB913F" d="M32 28a4 4 0 0 1-4 4H4a4 4 0 0 1-4-4V4a4 4 0 0 1 4-4h24a4 4 0 0 1 4 4v24z"/><path fill="#FB913F" d="M32 28a4 4 0 0 1-4 4H4a4 4 0 0 1-4-4V4a4 4 0 0 1 4-4h24a4 4 0 0 1 4 4v24z"/></g><path fill="#FFF" d="M28.62 12.907v-.018h-2.292v-.003c-.85-.013-1.512-.158-1.512-1.77V9.8a7.777 7.777 0 0 0-7.777-7.778H9.78A7.778 7.778 0 0 0 2 9.8v12.4a7.775 7.775 0 0 0 7.78 7.776h12.443c4.104 0 7.46-3.183 7.75-7.215h.028v-8.317c.002-.798-.604-1.45-1.38-1.536zM11.075 9.044h4.666a1.814 1.814 0 1 1 0 3.63h-4.666a1.813 1.813 0 0 1-1.814-1.816c0-1.002.81-1.814 1.814-1.814zm4.957 8.462l-.03.043-.04-.055.07.01zm4.894 5.538h-9.85a1.814 1.814 0 0 1 0-3.628h9.85a1.814 1.814 0 1 1 0 3.628z"/></svg>