<svg xmlns="http://www.w3.org/2000/svg" width="32" height="32" viewBox="0 0 32 32"><path fill="#FFF" d="M14.425 29.5l-.52-3.514-.328-.08a10.082 10.082 0 0 1-2.87-1.188l-.286-.174-2.85 2.114-2.23-2.23 2.118-2.853-.175-.285a10.076 10.076 0 0 1-1.188-2.867l-.08-.327-3.513-.52V14.42l3.512-.52.08-.327c.247-1.01.647-1.976 1.19-2.867l.176-.288-2.12-2.85 2.23-2.23 2.85 2.116.29-.175c.89-.54 1.854-.94 2.868-1.187l.327-.08.52-3.514h3.15l.53 3.512.325.08c1.007.246 1.972.646 2.867 1.188l.287.174 2.852-2.114 2.228 2.228-2.122 2.855.176.288c.54.886.94 1.85 1.19 2.866l.078.327 3.513.52v3.158l-3.51.52-.08.327a10.1 10.1 0 0 1-1.187 2.868l-.176.287 2.117 2.854-2.232 2.23-2.854-2.124-.288.176c-.888.54-1.853.94-2.866 1.188l-.327.08-.52 3.514h-3.152zM16 11.748c-2.344 0-4.25 1.907-4.25 4.252s1.906 4.252 4.25 4.252c2.344 0 4.25-1.907 4.25-4.252s-1.906-4.252-4.25-4.252z"/><path fill="#C8C8C8" d="M17.145 3l.414 2.755.1.664.65.158a9.644 9.644 0 0 1 2.728 1.13l.574.35.54-.4 2.235-1.66 1.618 1.62-1.664 2.237-.4.542.35.576a9.584 9.584 0 0 1 1.13 2.724l.16.653.666.1 2.753.406v2.295l-2.748.407-.666.1-.16.653a9.53 9.53 0 0 1-1.13 2.726l-.35.575.4.542 1.66 2.237-1.622 1.618-2.237-1.665-.54-.402-.577.353a9.55 9.55 0 0 1-2.725 1.13l-.654.158-.098.668L17.146 29h-2.29l-.406-2.754-.1-.667-.654-.16a9.58 9.58 0 0 1-2.727-1.13l-.576-.347-.54.4L7.62 26 6 24.382l1.66-2.236.4-.54-.35-.577a9.587 9.587 0 0 1-1.13-2.726l-.16-.654-.665-.1-2.753-.406v-2.29l2.753-.408.666-.1.16-.652a9.597 9.597 0 0 1 1.132-2.725l.35-.577-.402-.54L6 7.618l1.62-1.62L9.85 7.66l.54.4.576-.35a9.59 9.59 0 0 1 2.728-1.13l.654-.16.1-.665L14.854 3h2.29M16 20.752c2.62 0 4.75-2.132 4.75-4.752s-2.13-4.752-4.75-4.752S11.25 13.38 11.25 16s2.13 4.752 4.75 4.752M18.006 2h-4.014l-.533 3.607c-1.077.262-2.09.686-3.01 1.247L7.52 4.682l-2.84 2.84 2.175 2.927a10.607 10.607 0 0 0-1.25 3.007l-3.605.534v4.017l3.606.534a10.59 10.59 0 0 0 1.248 3.01l-2.173 2.93 2.84 2.838 2.927-2.17c.922.56 1.934.984 3.01 1.245L13.993 30h4.016l.53-3.608a10.613 10.613 0 0 0 3.01-1.247l2.93 2.18 2.843-2.84-2.173-2.93a10.58 10.58 0 0 0 1.248-3.01l3.604-.533-.004-.004v-4.016l-3.606-.534a10.632 10.632 0 0 0-1.248-3.007l2.18-2.93-2.84-2.838-2.928 2.17a10.684 10.684 0 0 0-3.008-1.246L18.006 2zM16 19.752a3.75 3.75 0 1 1 0-7.503 3.75 3.75 0 0 1 0 7.502z"/></svg>