<svg xmlns="http://www.w3.org/2000/svg" width="32" height="32" viewBox="0 0 32 32"><path fill="#FFF" d="M24.506 9.09a2.28 2.28 0 1 1 0 0z"/><path fill="#C8C8C8" d="M3.625 29.34s.207.662.59.662c.108 0 .23-.053.367-.188.617-.62 2.774-2.775 2.774-2.775l.28-2.593 2.59-.278.278-2.592 2.59-.276.28-2.59 2.59-.275 1.653-1.658c.975.42 2.02.63 3.062.63a7.66 7.66 0 0 0 5.437-2.253A7.706 7.706 0 0 0 20.67 2.004a7.7 7.7 0 0 0-7.07 10.754l-9.91 9.914-.065 6.67z"/><path fill="#FFF" d="M12.46 17.863l-.08.74-.192 1.788-1.79.192-.736.078 2.798-2.797M9.59 20.732l-.08.737-.192 1.79-1.79.192-.737.08 2.8-2.8M6.722 23.603l-.08.736-.242 2.24-1.766 1.767.024-2.683 2.064-2.06M25.41 4.964A6.657 6.657 0 0 0 20.67 3c-1.79 0-3.475.698-4.74 1.964a6.665 6.665 0 0 0-1.413 7.394l.27.624-.48.48-.048.047.147.147.423.422.71.706-.71.708-2.3 2.302.74-.08 2.236-.238 1.403-1.407.478-.48.625.27c.844.363 1.74.548 2.663.548 1.787 0 3.47-.696 4.73-1.96 2.616-2.616 2.616-6.87.004-9.484zm-.904 4.126a2.273 2.273 0 0 1-3.222 0 2.28 2.28 0 0 1 1.613-3.89 2.28 2.28 0 0 1 1.61 3.89z"/><path fill="#FFF" d="M3.672 24.392l10.03-10.028.422.422-10.462 10.46z"/></svg>