<svg xmlns="http://www.w3.org/2000/svg" width="96" height="32" viewBox="0 0 96 32"><path d="M27.957 8.437c0 1.118-.902 2.02-2.02 2.02H5.73a2.02 2.02 0 1 1 0-4.04h20.207c1.118 0 2.02.904 2.02 2.02zm0 15.125c0 1.11-.902 2.02-2.02 2.02H5.73c-1.116 0-2.02-.91-2.02-2.02a2.02 2.02 0 0 1 2.02-2.023h20.207a2.02 2.02 0 0 1 2.02 2.02v.002zm0-7.568c0 1.116-.902 2.02-2.02 2.02H5.73a2.02 2.02 0 1 1 0-4.04h20.207c1.118 0 2.02.904 2.02 2.02z" fill="#b4b4b4"/><path d="M88.455 24.57c-.79.79-2.066.79-2.855 0L71.31 10.283a2.02 2.02 0 1 1 2.857-2.856l14.288 14.29c.79.788.79 2.066 0 2.853zm.002-17.14c.785.785.79 2.067 0 2.857L74.17 24.577a2.025 2.025 0 0 1-2.86-2.862l14.288-14.29c.79-.79 2.067-.79 2.857 0l.002.005z" fill="#8c0d00"/></svg>