<svg xmlns="http://www.w3.org/2000/svg" width="96" height="32" viewBox="0 0 96 32"><path fill="#FFF" d="M29.486 0a2.35 2.35 0 0 1 2.348 2.347v27.307A2.35 2.35 0 0 1 29.486 32H2.18a2.35 2.35 0 0 1-2.346-2.348V2.347A2.35 2.35 0 0 1 2.18 0h27.306"/><path fill="#B4B4B4" d="M27.957 3.854c0 1.118-.902 2.02-2.02 2.02H5.73a2.02 2.02 0 1 1 0-4.04h20.207c1.118 0 2.02.904 2.02 2.02zm0 15.125c0 1.11-.902 2.02-2.02 2.02H5.73c-1.116 0-2.02-.91-2.02-2.02a2.02 2.02 0 0 1 2.02-2.024h20.207a2.02 2.02 0 0 1 2.02 2.02v.003zm0-7.57c0 1.117-.902 2.02-2.02 2.02H5.73a2.02 2.02 0 1 1 0-4.04h20.207c1.118 0 2.02.905 2.02 2.02zM10.54 29.833V25c0-.248.02-.646.06-1.197h-.02c-.047.146-.09.273-.127.38-.04.11-.078.196-.11.27l-2.44 5.38h-.28L5.18 24.48a4.662 4.662 0 0 1-.22-.69h-.02c.012.15.02.32.026.515.005.192.007.404.007.64v4.893h-.63v-7.003h.767l2.38 5.27c.05.106.096.22.143.34.047.106.09.23.13.36h.028l.126-.354a5.02 5.02 0 0 1 .14-.35l2.397-5.272h.728v7.003h-.64v.003zm2.648-2.388c.004.306.045.58.123.824.08.24.19.445.338.618.147.16.325.3.535.383.21.09.447.137.71.137.563 0 1.094-.197 1.596-.59v.614c-.48.343-1.06.513-1.74.513-.334 0-.64-.063-.912-.178a1.867 1.867 0 0 1-.698-.513c-.192-.228-.34-.5-.444-.82a3.64 3.64 0 0 1-.156-1.112c0-.373.057-.72.17-1.04.115-.32.273-.595.475-.827.202-.23.44-.414.718-.547a2.1 2.1 0 0 1 .91-.195c.32 0 .605.06.853.17.248.112.455.272.623.48.166.208.294.462.382.762s.133.635.133 1.006v.313h-3.61l-.007.005zm2.97-.547c-.01-.52-.133-.926-.37-1.21-.24-.288-.57-.436-.99-.436-.21 0-.41.037-.59.112-.18.07-.34.184-.475.32-.14.146-.25.313-.34.52-.09.206-.157.44-.19.69h2.956v.004zm5.244 2.935v-2.88c0-1.13-.41-1.695-1.23-1.695-.22 0-.42.043-.605.13a1.41 1.41 0 0 0-.48.358 1.666 1.666 0 0 0-.313.544c-.076.21-.115.438-.115.683v2.86h-.626v-5h.625v.87h.02c.37-.658.93-.987 1.675-.987.547 0 .965.18 1.25.532.287.354.432.867.432 1.538v3.047h-.635zm5.4 0v-.85h-.02c-.34.645-.864.967-1.577.967-1.188 0-1.78-.726-1.78-2.18v-2.94h.624v2.822c0 .6.104 1.04.32 1.326.212.287.538.432.98.432.212 0 .407-.04.585-.124.178-.082.332-.2.46-.354.128-.147.228-.332.3-.543.072-.215.105-.448.105-.704V24.83h.62v5h-.626l.007.003z"/><g><path fill="#FFF" d="M93.486 0a2.35 2.35 0 0 1 2.348 2.347v27.307A2.35 2.35 0 0 1 93.486 32H66.182a2.35 2.35 0 0 1-2.348-2.348V2.347A2.35 2.35 0 0 1 66.182 0h27.304"/><path fill="#8C0D00" d="M88.455 20.402c-.79.79-2.066.79-2.855.002L71.31 6.114a2.02 2.02 0 1 1 2.857-2.855l14.288 14.288c.79.79.79 2.067 0 2.854zm.002-17.14c.785.786.79 2.068 0 2.858L74.17 20.41a2.025 2.025 0 0 1-2.86-2.862l14.288-14.29c.79-.79 2.067-.79 2.857 0l.002.005z"/><path fill="#B4B4B4" d="M74.54 29.833V25c0-.248.02-.646.06-1.197h-.02c-.047.146-.09.273-.127.38-.04.11-.078.196-.11.27l-2.44 5.38h-.277l-2.44-5.354a4.86 4.86 0 0 1-.224-.69h-.02c.014.15.02.32.025.515.005.192.007.404.007.64v4.893h-.63v-7.003h.767l2.38 5.265c.05.108.096.22.143.34.047.108.09.232.13.362h.028l.126-.356a4.96 4.96 0 0 1 .14-.352l2.397-5.27h.73v7.003h-.642v.006zm2.65-2.388c.003.306.044.58.122.824.078.24.188.445.336.618.146.16.326.3.535.383.21.09.445.137.71.137.564 0 1.095-.197 1.597-.59v.614c-.48.343-1.06.513-1.738.513a2.33 2.33 0 0 1-.913-.178 1.875 1.875 0 0 1-.7-.513 2.41 2.41 0 0 1-.44-.82 3.64 3.64 0 0 1-.156-1.112c0-.373.06-.72.17-1.04a2.5 2.5 0 0 1 .477-.827 2.097 2.097 0 0 1 1.627-.742c.32 0 .605.06.855.168.248.112.455.272.623.48.167.208.295.462.383.762s.133.635.133 1.006v.313h-3.606l-.015.005zm2.97-.547c-.012-.52-.135-.926-.37-1.21-.24-.288-.57-.436-.993-.436-.21 0-.408.037-.588.112-.18.07-.34.184-.478.32a1.68 1.68 0 0 0-.34.52c-.09.206-.156.44-.19.69H80.16v.004zm5.242 2.935v-2.88c0-1.13-.41-1.695-1.23-1.695a1.42 1.42 0 0 0-1.084.488 1.666 1.666 0 0 0-.314.544c-.074.21-.113.438-.113.683v2.86h-.624v-5h.625v.87h.022c.37-.658.932-.987 1.676-.987.547 0 .965.18 1.25.532.287.354.432.867.432 1.538v3.047h-.638zm5.4 0v-.85h-.02c-.34.645-.863.967-1.576.967-1.188 0-1.782-.726-1.782-2.18v-2.94h.625v2.822c0 .6.104 1.04.32 1.326.212.287.54.432.98.432.212 0 .405-.04.585-.124.178-.082.332-.2.46-.354.128-.147.23-.332.3-.543.072-.215.104-.448.104-.704V24.83h.62v5h-.627l.01.003z"/></g></svg>