<svg xmlns="http://www.w3.org/2000/svg" width="32" height="32" viewBox="0 0 32 32"><path fill="#4E4E4E" d="M15.874 11.398a.484.484 0 0 1-.46-.636l2.144-6.398a.485.485 0 0 1 .563-.32l8.747 1.945a.482.482 0 0 1 .368.575.49.49 0 0 1-.575.367l-8.324-1.854-2.008 5.987a.48.48 0 0 1-.456.328l.002.005z"/><path fill="#FFF" d="M25.42 8.5c-1.142 0-2.07-.927-2.07-2.07s.93-2.076 2.07-2.076a2.068 2.068 0 0 1 0 4.138V8.5z"/><path fill="#232323" d="M25.42 4.846a1.586 1.586 0 1 1-1.588 1.586c0-.876.71-1.586 1.588-1.586m0-.966a2.556 2.556 0 0 0-2.553 2.55 2.557 2.557 0 0 0 2.553 2.554 2.557 2.557 0 0 0 2.552-2.553 2.556 2.556 0 0 0-2.552-2.55z"/><circle fill="#FFF" cx="5.012" cy="15.193" r="2.53"/><path fill="#232323" d="M5.012 18.206A3.017 3.017 0 0 1 2 15.193a3.017 3.017 0 0 1 3.013-3.013 3.018 3.018 0 0 1 3.013 3.013 3.02 3.02 0 0 1-3.014 3.013zm0-5.06a2.047 2.047 0 1 0 .003 4.095 2.047 2.047 0 0 0-.003-4.094z"/><circle fill="#FFF" cx="26.988" cy="15.193" r="2.53"/><path fill="#232323" d="M26.988 18.206a3.02 3.02 0 0 1-3.013-3.014c0-1.66 1.353-3.013 3.013-3.013S30 13.53 30 15.19a3.018 3.018 0 0 1-3.012 3.014zm0-5.06a2.05 2.05 0 0 0 0 4.095 2.048 2.048 0 0 0 0-4.095z"/><ellipse fill="#FFF" cx="16" cy="19.586" rx="12.71" ry="8.051"/><path fill="#232323" d="M16 28.12c-7.273 0-13.193-3.828-13.193-8.534 0-4.707 5.92-8.536 13.193-8.536 7.274 0 13.192 3.83 13.192 8.536 0 4.706-5.918 8.534-13.192 8.534zm0-16.105c-6.742 0-12.227 3.397-12.227 7.57 0 4.174 5.484 7.568 12.227 7.568 6.744 0 12.23-3.396 12.23-7.567-.002-4.173-5.486-7.57-12.23-7.57zm0 13.157c-2.165 0-4.634-.463-5.267-1.502a.485.485 0 0 1 .162-.666.485.485 0 0 1 .663.162c.25.42 1.845 1.04 4.44 1.04 2.6 0 4.184-.62 4.442-1.04a.483.483 0 0 1 .824.506c-.63 1.037-3.097 1.5-5.264 1.5z"/><circle fill="#FF4500" cx="20.649" cy="17.475" r="2.123"/><circle fill="#FF4500" cx="11.352" cy="17.475" r="2.123"/></svg>