<svg xmlns="http://www.w3.org/2000/svg" width="32" height="32" viewBox="0 0 32 32"><path fill="#FFF" d="M26.345 31.5C26.082 17.36 14.64 5.906.512 5.642V.504C17.478.77 31.232 14.527 31.496 31.5h-5.15zm-10.882 0a15.34 15.34 0 0 0-4.53-10.456 15.348 15.348 0 0 0-10.43-4.53V11.38c10.98.263 19.858 9.145 20.12 20.122h-5.16zM4.26 31.463c-2.073 0-3.76-1.68-3.76-3.742a3.76 3.76 0 0 1 3.76-3.752 3.764 3.764 0 0 1 3.766 3.753c0 2.064-1.69 3.743-3.766 3.743z"/><path fill="#C8C8C8" d="M1.012 1.016C17.305 1.536 30.465 14.7 30.984 31h-4.152C26.317 16.98 15.018 5.672 1.012 5.156v-4.14m-.008 10.88c10.303.505 18.594 8.798 19.1 19.104H15.94a15.828 15.828 0 0 0-4.652-10.31c-2.78-2.782-6.4-4.414-10.285-4.653v-4.14m3.257 12.57c1.8 0 3.266 1.46 3.266 3.254 0 1.79-1.465 3.243-3.266 3.243C2.463 30.963 1 29.51 1 27.72a3.26 3.26 0 0 1 3.26-3.252M.012 0v6.137C14.254 6.137 25.85 17.74 25.85 32H32C32 14.36 17.648 0 .012 0zM.008 10.872H.004v6.135c3.995 0 7.75 1.562 10.577 4.392A14.877 14.877 0 0 1 14.97 32h6.16c0-11.65-9.48-21.128-21.122-21.128zM4.26 23.468A4.265 4.265 0 0 0 0 27.72c0 2.35 1.91 4.243 4.26 4.243 2.358 0 4.266-1.896 4.266-4.242A4.266 4.266 0 0 0 4.26 23.47z"/></svg>