<svg xmlns="http://www.w3.org/2000/svg" xmlns:xlink="http://www.w3.org/1999/xlink" width="32" height="32" viewBox="0 0 32 32"><symbol id="c" viewBox="-13.852 -5.808 27.703 11.617"><path fill="#ED1C24" d="M-2.396 3.433a4.428 4.428 0 0 1-.482.168l-.582.123a5.18 5.18 0 0 1-1.162.034l-1.16-.238a4.94 4.94 0 0 1-1.164-.566l-1.16-1.08C-8.563 1.282-9.06.806-9.06.806s-2.1.172-3.325-.806-1.467-1.828-1.467-2.76c0-.93.427-1.76 1.098-2.32 0 0 .744-.552 2.025-.73h21.21v.015c2.322.148 3.37 1.58 3.37 3.327 0 1.845-1.403 3.34-3.293 3.34-.485 0-.886-.1-1.31-.28-.3 2.93-2.803 5.217-5.883 5.217A5.948 5.948 0 0 1-.392 4.476c-.313-.32-.998-1.15-1.213-1.483l-.79.44z"/><path fill="#FFF" d="M-11.746-2.868c0-.8.367-1.517.945-2v4a2.6 2.6 0 0 1-.946-2M-9.8-.344v-5.05c.235-.062.484-.1.74-.1h.26v5.238a2.742 2.742 0 0 1-1-.088m2.208-.328a2.413 2.413 0 0 1-.21.12v-4.94h1v6.61a4.055 4.055 0 0 1-.79-1.79m1.79 2.72v-7.54h1v8.027a4.216 4.216 0 0 1-1-.488m2 .693v-8.233h1v8.205a4.663 4.663 0 0 1-.63.045c-.125 0-.248-.006-.37-.017m2.552-.58a4.35 4.35 0 0 1-1.05.446v-8.1h1.5v8.25a5.034 5.034 0 0 1-.45-.596m.95 1.097v-8.75h9.5v.012c2 .126 2.9 1.357 2.9 2.862C12.1-1.03 10.893.257 9.266.257c-.418 0-.762-.087-1.125-.24-.26 2.52-2.414 4.49-5.066 4.49A5.136 5.136 0 0 1-.3 3.257"/></symbol><use xlink:href="#c" width="27.703" height="11.617" x="-13.852" y="-5.808" transform="matrix(1.0107 0 0 -1.0107 16 16)" overflow="visible"/></svg>