<svg xmlns="http://www.w3.org/2000/svg" width="32" height="32" viewBox="0 0 32 32"><path fill="#2AA9E0" d="M11.15 27.084c-3.013 0-5.94-.857-8.47-2.482a.467.467 0 0 1 .307-.856c.396.05.807.072 1.224.072 1.937 0 3.783-.523 5.404-1.52a5.825 5.825 0 0 1-4.194-3.89.468.468 0 0 1 .532-.6c.098.02.198.034.298.048a5.85 5.85 0 0 1-2.733-4.938c0-.166.087-.353.23-.437a.57.57 0 0 1 .283-.083c.063 0 .124.014.18.045.212.12.434.22.662.305a5.816 5.816 0 0 1-.528-6.62.467.467 0 0 1 .367-.23c.013-.002.026-.002.04-.002a.47.47 0 0 1 .36.17 14.835 14.835 0 0 0 10.13 5.395 5.834 5.834 0 0 1 5.782-6.544c1.515 0 2.983.598 4.067 1.65a10.267 10.267 0 0 0 3.013-1.193.463.463 0 0 1 .528.037.47.47 0 0 1 .154.507 5.788 5.788 0 0 1-1.11 1.99c.41-.122.81-.27 1.197-.443a.464.464 0 0 1 .547.126c.134.16.147.387.032.56a11.3 11.3 0 0 1-2.59 2.747c.007.154.01.31.01.466.004 7.727-5.878 15.72-15.72 15.72z"/><path fill="#FFF" d="M21.023 5.382c1.543 0 2.935.65 3.914 1.693 1.22-.24 2.37-.687 3.405-1.3a5.356 5.356 0 0 1-2.358 2.96c1.086-.13 2.12-.418 3.08-.845h.002a10.872 10.872 0 0 1-2.68 2.778c.015.23.02.46.02.694 0 7.085-5.393 15.255-15.255 15.255-3.027 0-5.846-.885-8.217-2.408.417.05.845.075 1.28.075 2.512 0 4.824-.86 6.66-2.297a5.364 5.364 0 0 1-5.007-3.723 5.406 5.406 0 0 0 2.42-.092 5.367 5.367 0 0 1-4.3-5.256v-.068a5.32 5.32 0 0 0 2.427.67 5.365 5.365 0 0 1-2.39-4.462c0-.983.27-1.904.73-2.696 2.647 3.244 6.598 5.38 11.05 5.605a5.36 5.36 0 0 1 5.22-6.583m0-.933a6.302 6.302 0 0 0-6.29 6.484 14.378 14.378 0 0 1-9.26-5.163.93.93 0 0 0-1.53.124 6.283 6.283 0 0 0-.156 6.043.93.93 0 0 0-.736.912v.067c0 1.85.814 3.55 2.13 4.716a.93.93 0 0 0-.204.918A6.288 6.288 0 0 0 8.454 22.4a9.802 9.802 0 0 1-4.243.952c-.398 0-.79-.023-1.167-.068a.933.933 0 0 0-.615 1.713 16.11 16.11 0 0 0 8.723 2.555c10.134 0 16.188-8.23 16.188-16.19v-.24c.97-.766 1.81-1.676 2.504-2.713a.934.934 0 0 0-.99-1.43c.15-.294.278-.603.38-.92a.93.93 0 0 0-.89-1.218.927.927 0 0 0-.476.13 9.797 9.797 0 0 1-2.64 1.083 6.328 6.328 0 0 0-4.205-1.606z"/></svg>