<svg xmlns="http://www.w3.org/2000/svg" width="32" height="32" viewBox="0 0 32 32"><path fill="#FFF" d="M15.095 13.9a4.826 4.826 0 1 0 0 0m9.65 6.03h-9.65a4.826 4.826 0 0 0-4.825 4.824v3.533h19.298v-3.533a4.822 4.822 0 0 0-4.823-4.824"/><path fill="#C8C8C8" d="M30 28.718H9.84v-3.964a5.26 5.26 0 0 1 5.255-5.256h9.65A5.26 5.26 0 0 1 30 24.754v3.964zm-19.298-.862H29.14v-3.103a4.4 4.4 0 0 0-4.394-4.393h-9.65a4.398 4.398 0 0 0-4.394 4.393v3.103zm9.218-8.703a5.26 5.26 0 0 1-5.255-5.255c0-2.9 2.356-5.256 5.255-5.256s5.256 2.357 5.256 5.256a5.26 5.26 0 0 1-5.256 5.255zm0-9.65c-2.423 0-4.394 1.973-4.394 4.396s1.97 4.393 4.394 4.393 4.394-1.972 4.394-4.394a4.4 4.4 0 0 0-4.394-4.396z"/><path fill="#FFF" d="M10.96 12.243a4.48 4.48 0 1 0 0-8.96 4.48 4.48 0 0 0 0 8.96z"/><path fill="#B4B4B4" d="M10.96 4.146a3.623 3.623 0 0 1 3.62 3.617 3.623 3.623 0 0 1-3.62 3.616 3.622 3.622 0 0 1-3.618-3.617 3.623 3.623 0 0 1 3.618-3.62m0-.86a4.48 4.48 0 1 0 0 8.958 4.48 4.48 0 1 0 0-8.957z"/><path fill="#FFF" d="M9.306 24.752c0-3.19 2.597-5.79 5.79-5.79h2.024a5.793 5.793 0 0 1-2.965-5.6H6.48A4.48 4.48 0 0 0 2 17.845v8.84h7.307V24.75z"/><path fill="#B4B4B4" d="M13.277 14.225a6.662 6.662 0 0 0 1.5 3.885 6.657 6.657 0 0 0-6.334 6.643v1.07H2.86v-7.98a3.624 3.624 0 0 1 3.62-3.62h6.797m.88-.86H6.48A4.478 4.478 0 0 0 2 17.842v8.84h7.307v-1.93a5.8 5.8 0 0 1 5.79-5.79h2.024a5.792 5.792 0 0 1-2.963-5.6z"/></svg>