<svg xmlns="http://www.w3.org/2000/svg" width="32" height="32" viewBox="0 0 32 32"><path fill="#FFF" d="M9.212 10.06a6.788 6.788 0 1 0 13.576 0 6.788 6.788 0 0 0-13.576 0m13.576 8.486H9.212a6.787 6.787 0 0 0-6.787 6.788v3.394h27.152v-3.394a6.79 6.79 0 0 0-6.79-6.788"/><path fill="#C8C8C8" d="M30 29.15H2v-3.816c0-3.978 3.235-7.213 7.212-7.213h13.576c3.976 0 7.212 3.236 7.212 7.214v3.817zm-27.15-.847h26.3v-2.97a6.37 6.37 0 0 0-6.362-6.362H9.212a6.37 6.37 0 0 0-6.362 6.364v2.97zM16 17.273a7.22 7.22 0 0 1-7.212-7.213c0-3.977 3.235-7.212 7.212-7.212s7.212 3.235 7.212 7.212-3.236 7.212-7.212 7.212zm0-13.576a6.37 6.37 0 0 0-6.363 6.363A6.37 6.37 0 0 0 16 16.424a6.37 6.37 0 0 0 6.363-6.364A6.37 6.37 0 0 0 16 3.697z"/></svg>