<svg xmlns="http://www.w3.org/2000/svg" width="32" height="32" viewBox="0 0 32 32"><path fill="#B4B4B4" d="M24.04 26.72a3.072 3.072 0 0 1-3.076 3.074H5.074A3.074 3.074 0 0 1 2 26.72v-9.43a3.074 3.074 0 0 1 3.074-3.072h15.89a3.08 3.08 0 0 1 3.075 3.078v9.425z"/><path fill="#FFF" d="M9.83 17.865v8.343l6.378-4.26-6.38-4.083z"/><path fill="#C8C8C8" d="M16.97 2.21a5.27 5.27 0 1 0 5.268 5.263 5.26 5.26 0 0 0-5.268-5.268v.005zm0 8.78a3.513 3.513 0 1 1-.007 0h.007zM7.31 5.723a3.513 3.513 0 0 0 0 7.028 3.514 3.514 0 0 0-.005-7.028h.006z"/><path fill="#999" d="M16.97 10.99a3.513 3.513 0 1 1-.007 0h.007z"/><path fill="#B4B4B4" d="M30 28.287l-4.558-3.61v-5.344L30 15.723v12.564z"/></svg>