<svg xmlns="http://www.w3.org/2000/svg" width="32" height="32" viewBox="0 0 32 32"><path fill="#2B76AD" d="M17.344 23.31c-.875 0-1.65-.288-2.308-.856-.645-.553-1.107-1.28-1.41-2.227a.42.42 0 0 1 .236-.517l1.37-.575a.42.42 0 0 1 .556.235c.176.452.408.813.69 1.07.248.225.537.335.88.335.2 0 .507-.062.832-.592.28-.46.422-1.028.422-1.69 0-.8-.174-1.564-.433-1.902-.306-.4-.823-.876-1.56-.876h-1.15a.42.42 0 0 1-.42-.42v-.314c0-.083.023-.164.07-.232l2.398-3.625h-1.89l-3.358 11.17a.42.42 0 0 1-.403.3H11.7a.42.42 0 0 1-.403-.3L9.19 15.166 7.08 22.29a.42.42 0 0 1-.403.3h-.17a.42.42 0 0 1-.4-.296L2.086 9.292a.42.42 0 0 1 .402-.545h1.756a.42.42 0 0 1 .403.303l2.025 6.96 1.202-4.116-.768-2.607a.418.418 0 0 1 .066-.37.417.417 0 0 1 .336-.17h1.76a.42.42 0 0 1 .41.335l2.017 6.92 2.024-6.947a.42.42 0 0 1 .404-.303h5.927a.42.42 0 0 1 .42.42v.854c0 .065-.015.13-.044.188l-1.94 3.892c.853.36 1.523.902 1.914 1.555.538.897.812 1.85.812 2.835 0 1.386-.337 2.493-1.03 3.384-.726.947-1.684 1.43-2.842 1.43z"/><path fill="#FFF" d="M9.272 9.168v.004l2.428 8.332 2.43-8.332h5.926v.854l-2.15 4.31c.87.283 1.693.797 2.138 1.54.448.745.753 1.62.753 2.62 0 1.24-.285 2.28-.94 3.125-.65.85-1.478 1.27-2.513 1.27a2.998 2.998 0 0 1-2.033-.755c-.584-.5-1.008-1.178-1.285-2.037l1.37-.575c.202.52.47.93.798 1.23.33.296.717.443 1.165.443.472 0 .865-.263 1.19-.79.322-.53.484-1.17.484-1.91 0-.822-.175-1.71-.52-2.16-.403-.53-1.033-1.042-1.892-1.042h-1.152v-.314l2.83-4.277h-2.83l-.158.014-3.444 11.457H11.7l-2.51-8.486-2.515 8.482h-.167L2.488 9.168h1.758l2.43 8.344 1.64-5.617-.804-2.727h1.76m0-.84h-1.76a.84.84 0 0 0-.806 1.078l.733 2.49-.764 2.612-1.623-5.574a.84.84 0 0 0-.807-.607H2.49a.842.842 0 0 0-.804 1.09l4.018 13c.11.353.435.594.804.594h.167a.84.84 0 0 0 .806-.602l1.708-5.76 1.705 5.763a.84.84 0 0 0 .807.604h.167c.37 0 .7-.243.805-.6l.588-1.952c.326.958.83 1.735 1.504 2.313a3.843 3.843 0 0 0 2.58.955c1.296 0 2.365-.537 3.18-1.597.75-.964 1.114-2.155 1.114-3.638 0-1.063-.293-2.088-.872-3.05-.37-.62-.962-1.148-1.707-1.536l1.75-3.508a.834.834 0 0 0 .088-.375v-.855a.84.84 0 0 0-.84-.84H14.13a.842.842 0 0 0-.808.604L11.7 14.5l-1.615-5.542a.844.844 0 0 0-.813-.63zm6.668 3.215h.795L15.28 13.74l.66-2.197zm-2.356 7.84l1.122-3.734a.842.842 0 0 0 .763.485h1.15c.564 0 .978.386 1.224.71.17.22.347.872.347 1.65 0 .583-.12 1.078-.36 1.47-.237.39-.407.39-.472.39a.837.837 0 0 1-.6-.228c-.23-.21-.427-.518-.58-.91a.842.842 0 0 0-1.11-.47l-1.37.575a.88.88 0 0 0-.114.06z"/><g><path fill="#2B76AD" d="M25.51 23.354c-2.84 0-4.268-2.96-4.268-4.615a.42.42 0 0 1 .82-.132c.543 1.667 1.784 2.622 3.404 2.622 1.584 0 2.905-2.565 2.96-2.67a.42.42 0 0 1 .8.18v1.97a.42.42 0 0 1-.066.225c-.06.1-1.56 2.42-3.65 2.42z"/><path fill="#FFF" d="M21.664 18.74c.566 1.734 1.902 2.91 3.805 2.91 1.904 0 3.337-2.907 3.338-2.91v1.97s-1.413 2.225-3.296 2.225c-2.526 0-3.848-2.698-3.848-4.196M21.665 17.897a.84.84 0 0 0-.842.84c0 1.81 1.567 5.037 4.69 5.037 2.317 0 3.937-2.51 4.004-2.615a.83.83 0 0 0 .132-.45v-1.97a.84.84 0 0 0-.842-.84.842.842 0 0 0-.76.48c-.318.64-1.457 2.43-2.578 2.43-1.953 0-2.72-1.462-3.006-2.332a.84.84 0 0 0-.797-.58z"/><g><path fill="#2B76AD" d="M22.66 16.673a.42.42 0 0 1-.382-.248c-.48-1.072-.64-2.626-.398-3.96.307-1.71 1.222-2.987 2.574-3.594.322-.143.644-.216.958-.216 1.203 0 1.986 1.037 2.393 1.777l.556-.846a.417.417 0 0 1 .472-.172c.18.053.3.217.3.403v1.693c0 .077-.02.152-.06.22l-.735 1.208a.422.422 0 0 1-.36.202.424.424 0 0 1-.37-.22c-.334-.612-1.193-1.768-2.05-1.768a.98.98 0 0 0-.375.076C23.972 11.72 22.79 14 23.08 16.2a.422.422 0 0 1-.42.473z"/><path fill="#FFF" d="M25.412 9.074c1.553 0 2.328 2.222 2.328 2.222l.97-1.482v1.693l-.733 1.21s-1.063-1.99-2.42-1.988c-.174 0-.352.03-.534.105-1.37.56-2.677 3.03-2.36 5.418-.817-1.82-.82-5.75 1.965-7 .28-.125.542-.18.784-.18m0-.84v.84-.84c-.373 0-.753.085-1.13.253-1.483.666-2.483 2.052-2.816 3.905-.258 1.434-.093 3.045.43 4.207a.84.84 0 0 0 1.6-.455c-.274-2.078.91-4.148 1.845-4.53a.58.58 0 0 1 .218-.043c.573 0 1.328.905 1.68 1.548a.844.844 0 0 0 1.46.035l.733-1.21a.83.83 0 0 0 .124-.437V9.814a.84.84 0 0 0-1.545-.46l-.2.302c-.51-.706-1.298-1.423-2.398-1.423z"/></g></g></svg>