<svg xmlns="http://www.w3.org/2000/svg" width="32" height="32" viewBox="0 0 32 32"><path fill="#FFF" d="M26.83 29.366a.385.385 0 0 1-.275-.115L13.01 15.71l-.286.15c-1 .526-2.132.804-3.27.804a6.955 6.955 0 0 1-4.96-2.057A6.977 6.977 0 0 1 2.987 6.92l4.208 4.208c.24.238.558.37.895.37.336 0 .654-.13.894-.37l2.344-2.343c.24-.24.37-.557.37-.895 0-.34-.13-.657-.37-.896L7.304 2.972a6.994 6.994 0 0 1 2.16-.338c1.87 0 3.63.728 4.953 2.05a6.973 6.973 0 0 1 1.482 7.73l-.118.27L29.45 26.356c.073.073.113.17.113.274a.38.38 0 0 1-.114.276l-2.342 2.345a.39.39 0 0 1-.277.116z"/><path fill="#C8C8C8" d="M9.465 3.07a6.53 6.53 0 0 1 4.643 1.922 6.54 6.54 0 0 1 1.39 7.247l-.235.544.42.42L29.106 26.63 26.83 28.91l-13.284-13.28-.456-.458-.57.3c-.938.493-2 .753-3.065.753a6.53 6.53 0 0 1-4.652-1.93 6.54 6.54 0 0 1-1.642-6.58l3.727 3.727a1.7 1.7 0 0 0 1.202.494c.454 0 .88-.175 1.204-.497l2.343-2.342c.32-.322.498-.75.498-1.205s-.178-.883-.498-1.205L8.152 3.202c.43-.088.868-.13 1.313-.13m0-.876c-1.005 0-2.01.202-2.95.605l4.503 4.503a.83.83 0 0 1 0 1.172L8.674 10.82a.83.83 0 0 1-1.172 0L2.857 6.174a7.45 7.45 0 0 0 1.327 8.74 7.42 7.42 0 0 0 5.27 2.186 7.465 7.465 0 0 0 3.473-.854L26.244 29.56a.832.832 0 0 0 1.173 0l2.342-2.345a.83.83 0 0 0 0-1.17L16.3 12.584a7.45 7.45 0 0 0-1.576-8.212 7.42 7.42 0 0 0-5.26-2.177z"/></svg>